<svg id="Layer_1" data-name="Layer 1" xmlns="http://www.w3.org/2000/svg" viewBox="0 0 100 101"><defs><style>.cls-1{fill:#333;}.cls-2{fill:#fff;}</style></defs><title>Co2 Monitoring_80blk 100px V2 AW</title><path class="cls-1" d="M90.75,51.46a1.43,1.43,0,0,1,0-2.85H100a51.3,51.3,0,0,0-.56-5.93L90.29,44.3l-0.25,0a1.43,1.43,0,0,1-.24-2.83l9.1-1.62a50.32,50.32,0,0,0-1.58-5.74l-8.71,3.2a1.39,1.39,0,0,1-.48.09,1.41,1.41,0,0,1-1.33-.94,1.43,1.43,0,0,1,.84-1.83l8.68-3.19a50.54,50.54,0,0,0-2.55-5.38l-8,4.68a1.4,1.4,0,0,1-1.93-.52,1.43,1.43,0,0,1,.52-1.95l8-4.66a50.56,50.56,0,0,0-3.43-4.85l-7.09,6a1.4,1.4,0,0,1-2-.18,1.44,1.44,0,0,1,.17-2l7.07-6a50.6,50.6,0,0,0-4.21-4.17l-5.95,7.16a1.4,1.4,0,0,1-2,.18,1.44,1.44,0,0,1-.17-2l5.93-7.14a50,50,0,0,0-4.86-3.38l-4.63,8.1a1.41,1.41,0,0,1-1.22.71,1.39,1.39,0,0,1-.71-0.19,1.43,1.43,0,0,1-.52-1.95l4.62-8.08A49.5,49.5,0,0,0,68,3.36l-3.17,8.79a1.41,1.41,0,0,1-1.33.94A1.39,1.39,0,0,1,63,13a1.43,1.43,0,0,1-.84-1.83l3.16-8.77A49.09,49.09,0,0,0,59.63.93L58,10.14a1.42,1.42,0,0,1-1.39,1.18l-0.25,0a1.43,1.43,0,0,1-1.15-1.65l1.6-9.18A49.85,49.85,0,0,0,51,0V9.34a1.41,1.41,0,1,1-2.82,0V0a49.84,49.84,0,0,0-5.87.56L43.87,9.8a1.43,1.43,0,0,1-1.15,1.65l-0.25,0a1.42,1.42,0,0,1-1.39-1.18l-1.6-9.19A49.13,49.13,0,0,0,33.79,2.7L37,11.49a1.43,1.43,0,0,1-.84,1.83,1.41,1.41,0,0,1-1.81-.85L31.15,3.7a49.59,49.59,0,0,0-5.32,2.57l4.63,8.1a1.43,1.43,0,0,1-.52,1.95,1.39,1.39,0,0,1-.7.19A1.41,1.41,0,0,1,28,15.8L23.39,7.73a50,50,0,0,0-4.8,3.47l5.95,7.16a1.44,1.44,0,0,1-.17,2,1.4,1.4,0,0,1-2-.18L16.44,13a50.62,50.62,0,0,0-4.13,4.25l7.09,6a1.44,1.44,0,0,1,.17,2,1.4,1.4,0,0,1-2,.18l-7.07-6a50.65,50.65,0,0,0-3.34,4.91l8,4.68A1.43,1.43,0,0,1,15.71,31a1.4,1.4,0,0,1-1.93.52l-8-4.66a50.55,50.55,0,0,0-2.45,5.42L12,35.51a1.43,1.43,0,0,1,.84,1.83,1.41,1.41,0,0,1-1.81.85L2.39,35A50.44,50.44,0,0,0,.92,40.77L10,42.4a1.43,1.43,0,0,1-.24,2.83l-0.25,0L0.46,43.59A51.2,51.2,0,0,0,0,49.53H9.25a1.43,1.43,0,0,1,0,2.85H0C1,79.4,23,101,50,101c27.3,0,49.49-22.09,50-49.54H90.75Z"/><path class="cls-2" d="M41.89,79c0,0.19,0,.35,0,0.49a2.08,2.08,0,0,1-.06.37,1.18,1.18,0,0,1-.11.28,1.45,1.45,0,0,1-.24.3,4.92,4.92,0,0,1-.73.53,8.76,8.76,0,0,1-1.38.7,11.34,11.34,0,0,1-1.88.58,10.77,10.77,0,0,1-2.33.24,10.11,10.11,0,0,1-3.93-.73,8,8,0,0,1-3-2.17A9.88,9.88,0,0,1,26.32,76a17.91,17.91,0,0,1,.05-9.86,10.89,10.89,0,0,1,2-3.73,8.61,8.61,0,0,1,3.1-2.33,10.2,10.2,0,0,1,5.89-.62,12,12,0,0,1,1.7.46,7.8,7.8,0,0,1,1.38.65,4.75,4.75,0,0,1,.84.6,2.13,2.13,0,0,1,.3.36,1.16,1.16,0,0,1,.11.29,2.85,2.85,0,0,1,.07.4,4.65,4.65,0,0,1,0,.54,4.36,4.36,0,0,1,0,.59,1.82,1.82,0,0,1-.1.41,0.63,0.63,0,0,1-.17.24,0.35,0.35,0,0,1-.23.08,1.28,1.28,0,0,1-.68-0.34A11.11,11.11,0,0,0,39.47,63a9.14,9.14,0,0,0-1.67-.75,7.21,7.21,0,0,0-2.35-.34,6.09,6.09,0,0,0-2.72.6,5.73,5.73,0,0,0-2.09,1.77,8.75,8.75,0,0,0-1.35,2.86,15.85,15.85,0,0,0,0,7.65,7.94,7.94,0,0,0,1.32,2.76,5.55,5.55,0,0,0,2.11,1.68,6.8,6.8,0,0,0,2.84.57,7.44,7.44,0,0,0,2.34-.33,9.06,9.06,0,0,0,1.7-.74A13.24,13.24,0,0,0,40.73,78a1.37,1.37,0,0,1,.71-0.33,0.4,0.4,0,0,1,.21.05,0.37,0.37,0,0,1,.14.2,2,2,0,0,1,.08.41Q41.89,78.55,41.89,79Z"/><path class="cls-2" d="M63,70.59a17.72,17.72,0,0,1-.64,4.94,10.42,10.42,0,0,1-1.91,3.75,8.37,8.37,0,0,1-3.19,2.38,11.23,11.23,0,0,1-4.48.83,11.4,11.4,0,0,1-4.37-.76,7.68,7.68,0,0,1-3-2.21,9.44,9.44,0,0,1-1.79-3.6A18.83,18.83,0,0,1,43,71a17.24,17.24,0,0,1,.64-4.85,10.13,10.13,0,0,1,1.92-3.71A8.5,8.5,0,0,1,48.78,60,12.63,12.63,0,0,1,57.57,60a7.81,7.81,0,0,1,3.05,2.19,9.34,9.34,0,0,1,1.82,3.56A18,18,0,0,1,63,70.59Zm-3.15.21a17.87,17.87,0,0,0-.34-3.57,8.25,8.25,0,0,0-1.12-2.86,5.45,5.45,0,0,0-2.1-1.89,7,7,0,0,0-3.25-.68,6.59,6.59,0,0,0-3.25.73,6.14,6.14,0,0,0-2.13,2,8.22,8.22,0,0,0-1.17,2.86,16.08,16.08,0,0,0-.35,3.43,19.08,19.08,0,0,0,.33,3.67,8.24,8.24,0,0,0,1.11,2.89,5.3,5.3,0,0,0,2.08,1.89,7.09,7.09,0,0,0,3.27.67,6.71,6.71,0,0,0,3.28-.73,5.94,5.94,0,0,0,2.14-2,8.43,8.43,0,0,0,1.16-2.89A16.89,16.89,0,0,0,59.89,70.8Z"/><path class="cls-2" d="M74.35,85.42a2.31,2.31,0,0,1,0,.38,1.18,1.18,0,0,1-.08.28,0.37,0.37,0,0,1-.14.17,0.35,0.35,0,0,1-.19.05H65.48a0.91,0.91,0,0,1-.29,0A0.49,0.49,0,0,1,65,86.12a0.58,0.58,0,0,1-.13-0.27,2.08,2.08,0,0,1,0-.44c0-.16,0-0.3,0-0.42a1.06,1.06,0,0,1,.08-0.32,1.83,1.83,0,0,1,.15-0.27,2.19,2.19,0,0,1,.24-0.29l3-3.16A19.7,19.7,0,0,0,70,79a10.33,10.33,0,0,0,1-1.58,5.19,5.19,0,0,0,.46-1.3A5.91,5.91,0,0,0,71.58,75a2.76,2.76,0,0,0-.17-1,2.39,2.39,0,0,0-.49-0.8,2.32,2.32,0,0,0-.81-0.55,2.92,2.92,0,0,0-1.12-.2,4.14,4.14,0,0,0-1.33.2,7.15,7.15,0,0,0-1,.44,7.8,7.8,0,0,0-.74.44,1,1,0,0,1-.44.2,0.25,0.25,0,0,1-.15,0,0.33,0.33,0,0,1-.11-0.16,1.26,1.26,0,0,1-.07-0.29,3.17,3.17,0,0,1,0-.43c0-.12,0-0.22,0-0.31a1.13,1.13,0,0,1,0-.22,0.88,0.88,0,0,1,.08-0.18,0.87,0.87,0,0,1,.19-0.21,4.1,4.1,0,0,1,.49-0.34,5.8,5.8,0,0,1,.87-0.42,7.69,7.69,0,0,1,1.15-.35,6,6,0,0,1,1.32-.14,5.43,5.43,0,0,1,1.94.31,3.85,3.85,0,0,1,1.38.86,3.49,3.49,0,0,1,.82,1.27,4.43,4.43,0,0,1,.27,1.55,8.34,8.34,0,0,1-.13,1.47A6,6,0,0,1,73,77.73a11.88,11.88,0,0,1-1.21,1.89,27.24,27.24,0,0,1-2.1,2.4l-2.41,2.54h6.63a0.36,0.36,0,0,1,.18.05,0.47,0.47,0,0,1,.15.16,0.84,0.84,0,0,1,.09.27A2.21,2.21,0,0,1,74.35,85.42Z"/><path class="cls-2" d="M53.52,47.92a4.42,4.42,0,0,1-1,6.13,4.32,4.32,0,0,1-6.07-1,4.42,4.42,0,0,1,1-6.13A4.32,4.32,0,0,1,53.52,47.92Z"/><polygon class="cls-2" points="31.18 24.3 46.48 53.07 53.52 47.92 31.18 24.3"/></svg>